<?xml version="1.0" standalone="no"?>
<!DOCTYPE svg PUBLIC "-//W3C//DTD SVG 20010904//EN"
 "http://www.w3.org/TR/2001/REC-SVG-20010904/DTD/svg10.dtd">
<svg version="1.0" xmlns="http://www.w3.org/2000/svg"
 width="512.000000pt" height="512.000000pt" viewBox="0 0 512.000000 512.000000"
 preserveAspectRatio="xMidYMid meet">
<metadata>
Created by potrace 1.16, written by Peter Selinger 2001-2019
</metadata>
<g transform="translate(0.000000,512.000000) scale(0.100000,-0.100000)"
fill="#000000" stroke="none">
<path d="M2266 4894 c-785 -101 -1466 -587 -1816 -1299 -376 -763 -307 -1678
178 -2374 666 -957 1926 -1284 2967 -771 1167 575 1647 1981 1075 3145 -351
716 -1036 1202 -1830 1300 -152 18 -424 18 -574 -1z m-490 -1279 c173 -52 231
-275 106 -409 -38 -41 -118 -76 -173 -76 -126 0 -235 93 -255 217 -14 88 49
208 130 250 69 36 118 40 192 18z m1512 -630 c151 -36 269 -130 338 -269 l39
-80 3 -557 c2 -500 1 -559 -13 -573 -14 -14 -48 -16 -239 -16 -159 0 -225 3
-234 12 -9 9 -12 123 -12 454 0 255 -4 464 -10 495 -17 92 -62 134 -161 151
-88 15 -160 -6 -218 -63 -70 -70 -71 -80 -71 -590 0 -398 -2 -448 -16 -453
-23 -9 -447 -7 -462 2 -10 7 -12 162 -10 743 l3 734 237 3 c272 3 255 9 254
-93 l-1 -60 65 49 c113 85 227 124 370 125 41 0 103 -6 138 -14z m-1354 -11
c14 -6 16 -80 16 -739 0 -659 -2 -733 -16 -739 -31 -12 -459 -7 -472 6 -17 17
-17 1449 0 1466 13 13 441 18 472 6z"/>
</g>
</svg>
